<svg xmlns="http://www.w3.org/2000/svg" viewBox="0 0 400.77 500.38"><defs><style>.cls-1{fill:#f7be00;}</style></defs><g id="Layer_2" data-name="Layer 2"><g id="Capa_1" data-name="Capa 1"><rect class="cls-1" x="137.01" y="397.23" width="126.98" height="18.49" rx="9.25"/><rect class="cls-1" x="137.01" y="422.59" width="126.98" height="18.49" rx="9.25"/><path class="cls-1" d="M254.74,448H146.65a9.51,9.51,0,0,0-9.6,8.34,9.25,9.25,0,0,0,9.2,10.15h5.66a2.66,2.66,0,0,1,2.26,1.26l17.77,28.65a8.5,8.5,0,0,0,7.24,4h39.58a8.52,8.52,0,0,0,7.24-4l17.77-28.65a2.66,2.66,0,0,1,2.26-1.26h8.31a9.51,9.51,0,0,0,9.6-8.34A9.25,9.25,0,0,0,254.74,448Z"/><path class="cls-1" d="M283.1,318.4a123.71,123.71,0,0,0,40.8-91.6c0-68-55.6-123.6-123.6-123.6S76.7,158.8,76.7,226.8a124.06,124.06,0,0,0,42,92.8c19.6,19.6,17.6,61.2,17.6,61.6a9.56,9.56,0,0,0,2,5.6,7.9,7.9,0,0,0,5.6,2.4H257.1a7.9,7.9,0,0,0,5.6-2.4,7.49,7.49,0,0,0,2-5.6c0-.4-2-42,17.6-61.6C282.7,319.2,283.1,318.8,283.1,318.4Zm-11.2-10a4,4,0,0,0-1.6,2c-17.6,18.8-20.4,49.6-20.8,64h-98c-.4-14.8-3.6-46.8-22.4-65.6a108.36,108.36,0,1,1,179.6-81.6A107.56,107.56,0,0,1,271.9,308.4Z"/><path class="cls-1" d="M200.3,135.2a7.6,7.6,0,0,0,0,15.2,81.26,81.26,0,0,1,81.2,81.2,7.6,7.6,0,1,0,15.2,0A96.45,96.45,0,0,0,200.3,135.2Z"/><path class="cls-1" d="M207.9,58.8V7.6a7.6,7.6,0,1,0-15.2,0V59.2a7.59,7.59,0,0,0,7.6,7.6A7.94,7.94,0,0,0,207.9,58.8Z"/><path class="cls-1" d="M326.3,38a7.6,7.6,0,0,0-10.4,2L287.5,82.8a7.6,7.6,0,0,0,2,10.4,7.72,7.72,0,0,0,4,1.2,8.35,8.35,0,0,0,6.4-3.2l28.4-42.8C330.7,45.2,329.5,40.4,326.3,38Z"/><path class="cls-1" d="M109.9,92.8a7.63,7.63,0,0,0,6.4-11.6L88.7,38a7.55,7.55,0,0,0-12.8,8l27.6,43.2A7.69,7.69,0,0,0,109.9,92.8Z"/><path class="cls-1" d="M3.9,128.8l45.2,24.4a5.94,5.94,0,0,0,3.6.8,8.25,8.25,0,0,0,6.8-4,7.52,7.52,0,0,0-3.2-10.4L11.1,115.2A7.52,7.52,0,0,0,.7,118.4C-.9,122.4.3,126.8,3.9,128.8Z"/><path class="cls-1" d="M347.9,154.4a11.68,11.68,0,0,0,3.6-.8l45.2-24.4a7.69,7.69,0,0,0-7.2-13.6L344.3,140a7.63,7.63,0,0,0,3.6,14.4Z"/></g></g></svg>